<?xml version="1.0" encoding="UTF-8"?>
<!DOCTYPE svg PUBLIC "-//W3C//DTD SVG 1.1//EN" "http://www.w3.org/Graphics/SVG/1.1/DTD/svg11.dtd">
<!-- Creator: CorelDRAW -->
<svg xmlns="http://www.w3.org/2000/svg" xml:space="preserve" width="31.9568mm" height="22.4639mm" version="1.1" style="shape-rendering:geometricPrecision; text-rendering:geometricPrecision; image-rendering:optimizeQuality; fill-rule:evenodd; clip-rule:evenodd"
viewBox="0 0 335.23 235.65"
 xmlns:xlink="http://www.w3.org/1999/xlink"
 xmlns:xodm="http://www.corel.com/coreldraw/odm/2003">
 <defs>
  <style type="text/css">
   <![CDATA[
    .fil0 {fill:#1E4F9C}
   ]]>
  </style>
 </defs>
 <g id="Слой_x0020_1">
  <metadata id="CorelCorpID_0Corel-Layer"/>
  <path class="fil0" d="M161.83 102.94c9.19,-2.39 17.13,4.65 18.67,11.41 2.16,9.51 -4.26,17.35 -11.5,18.92 -19.8,4.31 -27.24,-25.1 -7.16,-30.33zm-29.11 60.02c-17.61,-1.33 -42.54,-14.44 -52.66,-22.76 -47.52,-39.1 -18.83,-88.34 20.67,-119.57 7.07,-5.59 14.02,-10.3 21.41,-15.62 -15.86,2.65 -51.23,21.24 -63.36,28.71 -40.55,24.97 -73.91,69.39 -51.63,118.97 23.86,53.08 90.97,80.31 147.92,82.44 45.54,1.7 39.23,0.03 52.08,-16.6l68.38 -90.58c-2.94,1.06 -12.71,8.34 -16.66,10.84 -5.89,3.73 -11.67,6.72 -18.41,10.04 -8.87,4.37 -32.21,13.36 -42.4,13.68 5.21,-2.67 12.63,-12.24 16.13,-18.63 4.3,-7.84 6.73,-18.31 6.18,-28.96 -1.19,-22.96 -13.83,-35.12 -26.25,-44.17 52.75,3.86 123.58,55.01 60.97,124.67 -19.17,21.33 -27.09,22.52 -42.09,34.78 7.91,-1.15 25.63,-9.24 33.12,-12.63 29.47,-13.35 60.74,-33.28 76.96,-60.79 13,-22.05 16.63,-46.44 5.68,-72.5 -22.32,-53.12 -88.91,-81 -145.25,-84.03 -7.33,-0.39 -38.62,-0.65 -43.8,1.74 -0.55,0.25 -77.17,100.16 -78.67,104.75 3.32,-1.84 5.19,-3.78 8.1,-5.76 16.83,-11.45 44.04,-24.7 63.62,-27.49 -11,8.65 -22.5,23.21 -22.39,45.01 0.12,23.45 11.25,32.59 22.35,44.46z"/>
 </g>
</svg>
